<?xml version="1.0" encoding="UTF-8" standalone="no"?>
<!-- Created with Inkscape (http://www.inkscape.org/) -->

<svg
   xmlns:dc="http://purl.org/dc/elements/1.1/"
   xmlns:cc="http://creativecommons.org/ns#"
   xmlns:rdf="http://www.w3.org/1999/02/22-rdf-syntax-ns#"
   xmlns:svg="http://www.w3.org/2000/svg"
   xmlns="http://www.w3.org/2000/svg"
   xmlns:sodipodi="http://sodipodi.sourceforge.net/DTD/sodipodi-0.dtd"
   xmlns:inkscape="http://www.inkscape.org/namespaces/inkscape"
   width="210mm"
   height="297mm"
   viewBox="0 0 210 297"
   version="1.1"
   id="svg8"
   inkscape:version="0.92.3 (2405546, 2018-03-11)"
   sodipodi:docname="ghost-logo1.svg">
  <defs
     id="defs2" />
  <sodipodi:namedview
     id="base"
     pagecolor="#ffffff"
     bordercolor="#666666"
     borderopacity="1.0"
     inkscape:pageopacity="0.0"
     inkscape:pageshadow="2"
     inkscape:zoom="0.35"
     inkscape:cx="400"
     inkscape:cy="560"
     inkscape:document-units="mm"
     inkscape:current-layer="layer1"
     showgrid="false"
     inkscape:window-width="1366"
     inkscape:window-height="705"
     inkscape:window-x="-8"
     inkscape:window-y="-8"
     inkscape:window-maximized="1" />
  <metadata
     id="metadata5">
    <rdf:RDF>
      <cc:Work
         rdf:about="">
        <dc:format>image/svg+xml</dc:format>
        <dc:type
           rdf:resource="http://purl.org/dc/dcmitype/StillImage" />
        <dc:title></dc:title>
      </cc:Work>
    </rdf:RDF>
  </metadata>
  <g
     inkscape:label="Layer 1"
     inkscape:groupmode="layer"
     id="layer1">
    <path
       inkscape:connector-curvature="0"
       id="path3723"
       d="M 16.186979,224.21545 V 195.57362 L 11.511378,191.7899 C 8.9397861,189.70885 5.3574149,185.42181 3.5505455,182.26315 0.3004908,176.58162 0.2614256,176.31826 -0.0978671,157.6684 -0.453656,139.201 -0.402067,138.69169 2.4321837,132.68686 c 3.0894634,-6.54548 7.7757393,-11.89724 13.3479583,-15.24328 3.133539,-1.88171 3.545152,-2.7888 4.67133,-10.29454 0.802408,-5.34797 2.561862,-10.837544 5.023088,-15.672362 13.206727,-25.943195 42.453604,-41.764284 80.98153,-43.806844 29.59837,-1.569177 56.90063,7.14102 73.93251,23.586424 12.53049,12.099085 18.07406,24.887628 18.07406,41.695402 0,8.33749 0.19354,9.04864 3.65495,13.43899 5.64191,7.15565 6.77648,12.61207 6.77648,32.5893 0,18.64606 -0.69655,22.29383 -5.59016,29.27515 l -2.71041,3.86662 0.3071,30.1024 c 0.20293,19.86883 -0.0664,29.88133 -0.79088,29.45218 -0.60396,-0.35764 -6.64637,-4.88939 -13.42766,-10.0706 l -12.32954,-9.42039 -11.00222,8.20322 -11.0022,8.20324 -6.86452,-5.16367 c -3.77547,-2.84004 -8.68929,-6.55716 -10.91972,-8.26026 l -4.05518,-3.09658 -9.67036,7.36267 c -5.31871,4.04949 -10.28538,7.72214 -11.03707,8.16143 -0.85252,0.4982 -5.46526,-2.25726 -12.260992,-7.32416 l -10.894359,-8.12282 -10.462243,8.06363 c -5.754283,4.43495 -10.777784,8.06357 -11.163384,8.06357 -0.385579,0 -5.396965,-3.59046 -11.136376,-7.97888 -5.972202,-4.56636 -10.981782,-7.66414 -11.713095,-7.24296 -1.367251,0.78741 -20.856351,15.52998 -24.062258,18.20197 -1.823462,1.51978 -1.921584,0.13886 -1.921584,-27.04026 z m 60.048265,3.36507 10.465706,-7.93854 10.647188,7.93854 c 5.855992,4.36623 11.018002,7.93853 11.471152,7.93853 0.45315,0 5.50864,-3.61065 11.23445,-8.02372 l 10.41057,-8.0237 9.866,7.5344 c 5.42628,4.14392 10.50138,7.77048 11.27799,8.05899 0.77662,0.28843 6.20229,-3.10897 12.05702,-7.54995 l 10.64501,-8.07454 8.23297,6.51301 8.23301,6.51298 v -16.12768 c 0,-14.95376 -0.13967,-16.0698 -1.92156,-15.33296 -4.02426,1.66435 -12.97314,3.68491 -16.31979,3.68491 -1.91856,0 -6.70435,-0.96166 -10.63504,-2.13706 -9.37037,-2.80193 -17.46106,-9.69403 -21.79768,-18.56854 -3.07245,-6.28738 -3.12849,-6.73908 -3.12931,-25.23114 -9.7e-4,-22.75325 1.29386,-27.38203 10.11242,-36.14711 l 5.55386,-5.52016 -0.63481,-8.55288 c -0.82579,-11.125905 -4.22188,-21.655785 -8.14211,-25.245399 -6.68245,-6.11899 -28.4807,-10.127023 -44.575792,-8.196117 -29.31581,3.516929 -55.754678,22.585944 -66.274652,47.800536 -6.188234,14.83212 -6.229505,15.22866 -6.675681,64.14089 l -0.415921,45.59407 7.486394,-5.66265 c 4.117508,-3.11446 8.008281,-6.03339 8.646146,-6.48644 0.671904,-0.47723 5.52195,2.50497 11.529477,7.08926 5.703361,4.35218 10.77867,7.92158 11.278503,7.93202 0.499812,0.0135 5.618331,-3.55332 11.37448,-7.91955 z m -6.901438,-45.10421 c -3.339673,-1.97154 -5.991678,-6.75382 -7.499653,-13.52371 l -0.738491,-3.31545 11.310561,-4.57548 c 6.220834,-2.5165 15.70501,-6.40024 21.075992,-8.63045 l 9.765395,-4.05494 -0.65862,6.63061 c -1.00924,10.16132 -3.743072,16.5379 -9.447863,22.03681 -7.488169,7.21792 -17.07686,9.40599 -23.807321,5.43261 z M 37.232942,179.69318 C 34.47061,176.29335 33.5086,170.54569 33.961808,160.14931 l 0.342921,-7.86647 7.411814,6.20772 c 7.130575,5.97213 7.411744,6.39165 7.410106,11.0556 -0.0033,10.47931 -6.866543,16.33426 -11.893713,10.14702 z M 184.18804,191.8568 c 5.31796,-2.63548 9.45328,-6.64927 12.28633,-11.92536 1.99513,-3.7157 2.48132,-6.73673 2.86747,-17.81734 0.78442,-22.51034 -2.77979,-31.3266 -15.16134,-37.50261 -5.25415,-2.62082 -6.92398,-2.94432 -12.9532,-2.50967 -8.96752,0.64643 -15.90974,4.65448 -20.50065,11.83588 -3.27205,5.1184 -3.32871,5.45297 -3.68385,21.76433 -0.23367,10.72946 0.10013,18.06404 0.94749,20.81809 4.53926,14.75428 22.23995,22.25395 36.19775,15.33668 z m -9.38329,-17.41444 c -2.53846,-2.45756 -2.69523,-3.29684 -2.69523,-14.43285 0,-11.65078 0.047,-11.86896 3.20966,-14.93091 3.92545,-3.80031 7.70539,-3.97386 11.82728,-0.54307 2.91558,2.42682 3.10134,3.11335 3.4629,12.80085 0.21002,5.63007 0.0738,11.42464 -0.30256,12.87684 -1.78207,6.87415 -10.35446,9.21277 -15.50217,4.22914 z M 18.231167,135.06145 c 0.731772,-2.92339 1.616269,-6.27196 1.965547,-7.4413 0.485071,-1.62398 -0.299224,-1.26392 -3.320833,1.52457 -6.494886,5.99382 -7.4895699,10.04727 -7.0826039,28.86238 0.3315049,15.32677 0.5320469,16.66208 3.0995639,20.63913 l 2.745113,4.25217 0.631356,-21.26086 c 0.347241,-11.6935 1.230073,-23.65273 1.961857,-26.57609 z M 189.67829,103.17437 C 186.48025,87.196642 173.98205,72.617069 156.52299,64.497822 112.51799,44.033375 50.432506,59.004443 33.277274,94.216769 31.163009,98.556417 29.09912,104.25976 28.690869,106.89077 l -0.742301,4.7837 5.667038,-8.15016 C 53.434396,75.021493 87.122483,61.835345 124.1517,68.086842 c 11.27978,1.90437 20.50306,5.089416 24.74546,8.545335 4.37511,3.564132 8.70705,13.603102 10.12293,23.459503 2.07617,14.45292 0.7873,13.01832 11.15842,12.42055 7.19055,-0.41446 10.20515,-0.10659 14.55855,1.48859 l 5.49023,2.0113 0.36437,-3.22764 c 0.20059,-1.77517 -0.2103,-6.09971 -0.91326,-9.61011 z"
       style="fill:#000000;stroke-width:1.08040309" />
  </g>
</svg>
