<?xml version="1.0" encoding="UTF-8" standalone="no"?>
<!-- Created with Inkscape (http://www.inkscape.org/) -->

<svg
   xmlns:dc="http://purl.org/dc/elements/1.1/"
   xmlns:cc="http://creativecommons.org/ns#"
   xmlns:rdf="http://www.w3.org/1999/02/22-rdf-syntax-ns#"
   xmlns:svg="http://www.w3.org/2000/svg"
   xmlns="http://www.w3.org/2000/svg"
   xmlns:sodipodi="http://sodipodi.sourceforge.net/DTD/sodipodi-0.dtd"
   xmlns:inkscape="http://www.inkscape.org/namespaces/inkscape"
   version="1.1"
   id="svg3713"
   width="580"
   height="386"
   viewBox="0 0 580 386"
   sodipodi:docname="ghost-logo.svg"
   inkscape:version="0.92.3 (2405546, 2018-03-11)">
  <metadata
     id="metadata3719">
    <rdf:RDF>
      <cc:Work
         rdf:about="">
        <dc:format>image/svg+xml</dc:format>
        <dc:type
           rdf:resource="http://purl.org/dc/dcmitype/StillImage" />
        <dc:title></dc:title>
      </cc:Work>
    </rdf:RDF>
  </metadata>
  <defs
     id="defs3717" />
  <sodipodi:namedview
     pagecolor="#ffffff"
     bordercolor="#666666"
     borderopacity="1"
     objecttolerance="10"
     gridtolerance="10"
     guidetolerance="10"
     inkscape:pageopacity="0"
     inkscape:pageshadow="2"
     inkscape:window-width="1366"
     inkscape:window-height="705"
     id="namedview3715"
     showgrid="false"
     inkscape:zoom="1.388601"
     inkscape:cx="345.7119"
     inkscape:cy="253.8771"
     inkscape:window-x="-8"
     inkscape:window-y="-8"
     inkscape:window-maximized="1"
     inkscape:current-layer="svg3713" />
  <path
     style="fill:#000000;stroke-width:1.03574181"
     d="m 217.20152,234.27964 v -28.90365 l -4.25811,-3.81832 c -2.34197,-2.10007 -5.60447,-6.42631 -7.25,-9.61383 -2.95985,-5.73345 -2.99543,-5.99923 -3.32264,-24.81959 -0.324,-18.63621 -0.27702,-19.15019 2.30414,-25.20989 2.8136,-6.60535 7.08143,-12.00597 12.1561,-15.38264 2.85374,-1.89886 3.2286,-2.81426 4.25422,-10.38865 0.73076,-5.39685 2.33311,-10.93661 4.57457,-15.81562 12.02748,-26.180343 38.66287,-42.146023 73.75057,-44.207263 26.95546,-1.58352 51.81988,7.20625 67.33095,23.80203 11.41164,12.20967 16.4602,25.115093 16.4602,42.076553 0,8.41368 0.17614,9.13134 3.32862,13.56182 5.1381,7.22105 6.17138,12.72737 6.17138,32.88718 0,18.81652 -0.63436,22.49766 -5.09101,29.54274 l -2.46837,3.90201 0.27969,30.37758 c 0.18461,20.05045 -0.0603,30.15451 -0.72031,29.72142 -0.55,-0.3609 -6.05289,-4.93409 -12.22865,-10.16267 l -11.22864,-9.50651 -10.01981,8.27824 -10.01981,8.27823 -6.25155,-5.21091 c -3.43835,-2.866 -7.91345,-6.6171 -9.94467,-8.33577 l -3.69313,-3.12486 -8.80687,7.42997 c -4.84378,4.0865 -9.36696,7.79269 -10.05151,8.23599 -0.77639,0.50277 -4.97728,-2.27786 -11.16621,-7.39107 l -9.92158,-8.19707 -9.52808,8.13731 c -5.24045,4.47552 -9.81541,8.13731 -10.16657,8.13731 -0.35117,0 -4.91507,-3.62331 -10.14199,-8.05181 -5.43894,-4.60812 -10.00121,-7.7342 -10.66722,-7.3092 -1.24517,0.79461 -18.99406,15.67197 -21.91371,18.36839 -1.66064,1.53367 -1.75,0.14035 -1.75,-27.28745 z m 54.68647,3.39582 9.53122,-8.01111 9.69649,8.01111 c 5.33308,4.40611 10.03416,8.01112 10.44686,8.01112 0.4127,0 5.0168,-3.64368 10.23133,-8.09708 l 9.48097,-8.09706 8.98503,7.60328 c 4.94177,4.18182 9.56371,7.84151 10.27098,8.13267 0.70727,0.29115 5.64847,-3.13739 10.98043,-7.61898 l 9.69449,-8.14833 7.49786,6.57251 7.49787,6.57252 v -16.2751 c 0,-15.09043 -0.12738,-16.21672 -1.75,-15.47313 -3.66493,1.67954 -11.81474,3.71862 -14.86259,3.71862 -1.74721,0 -6.10564,-0.97046 -9.6854,-2.15659 -8.53369,-2.82757 -15.90195,-9.78269 -19.85134,-18.73826 -2.79809,-6.34491 -2.84911,-6.80069 -2.84988,-25.46183 -9.5e-4,-22.96124 1.17835,-27.63233 9.20949,-36.47753 l 5.05794,-5.57062 -0.57814,-8.63107 c -0.75207,-11.2276 -3.8449,-21.853733 -7.41507,-25.476183 -6.0858,-6.17492 -25.93759,-10.21957 -40.59557,-8.27104 -26.69816,3.5491 -50.77626,22.792403 -60.35689,48.237513 -5.63568,14.96774 -5.67326,15.36786 -6.0796,64.7272 l -0.37878,46.01089 6.81792,-5.71444 c 3.74985,-3.14294 7.29321,-6.08853 7.87412,-6.54574 0.61191,-0.4816 5.02889,2.52787 10.5,7.15408 5.19409,4.39195 9.81622,7.99399 10.27142,8.00453 0.45519,0.0107 5.11667,-3.58584 10.35884,-7.99195 z m -6.2852,-45.5165 c -3.04147,-1.9896 -5.45668,-6.81555 -6.83,-13.64738 l -0.67254,-3.34572 10.30063,-4.6173 c 5.66535,-2.53952 14.30268,-6.45872 19.19407,-8.70935 l 8.89343,-4.09205 -0.59978,6.69125 c -0.91915,10.25424 -3.40888,16.68908 -8.60428,22.23824 -6.81955,7.28392 -15.55202,9.49198 -21.68153,5.48231 z m -29.23453,-2.8086 c -2.51568,-3.43087 -3.39179,-9.2311 -2.97905,-19.7225 l 0.31231,-7.93838 6.75,6.26445 c 6.49388,6.02675 6.74994,6.45007 6.74845,11.15666 -0.003,10.57511 -6.25342,16.48361 -10.83171,10.23977 z m 133.83326,12.27484 c 4.8431,-2.65958 8.60914,-6.71009 11.18923,-12.03442 1.81701,-3.74961 2.25981,-6.79831 2.61145,-17.98019 0.71438,-22.71607 -2.53159,-31.613 -13.80755,-37.84542 -4.785,-2.64476 -6.30572,-2.97124 -11.7966,-2.53264 -8.16674,0.65234 -14.48912,4.69705 -18.67009,11.9441 -2.97992,5.1652 -3.03149,5.50282 -3.35495,21.96325 -0.21277,10.82757 0.0912,18.22922 0.86289,21.00845 4.13396,14.88915 20.25414,22.45734 32.96562,15.47687 z m -8.54545,-17.57363 c -2.31182,-2.48003 -2.45455,-3.32697 -2.45455,-14.5648 0,-11.75727 0.0427,-11.97748 2.92308,-15.06741 3.57492,-3.83505 7.01732,-4.01018 10.77116,-0.54801 2.65527,2.44897 2.82442,3.14182 3.15371,12.91784 0.19137,5.68154 0.0674,11.52909 -0.27544,12.99457 -1.62297,6.93696 -9.42991,9.29697 -14.11796,4.26781 z M 219.06318,144.31064 c 0.66643,-2.95009 1.47195,-6.32929 1.79004,-7.50932 0.44176,-1.63882 -0.27249,-1.27547 -3.02431,1.53853 -5.91495,6.04859 -6.82082,10.13908 -6.45019,29.12622 0.30192,15.46686 0.48454,16.81436 2.8228,20.82778 l 2.5,4.29105 0.57498,-21.45523 c 0.31624,-11.80037 1.12024,-23.86893 1.78668,-26.81903 z m 156.13834,-32.17855 c -2.91244,-16.123813 -14.2947,-30.836633 -30.1948,-39.030133 -40.07573,-20.65146 -96.6175,-5.54356 -112.24092,29.990653 -1.92548,4.37934 -3.80508,10.13478 -4.17688,12.78986 l -0.67602,4.82743 5.16102,-8.22467 c 18.04915,-28.763393 48.72917,-42.070053 82.45197,-35.761403 10.27264,1.92175 18.67233,5.13592 22.5359,8.62345 3.98449,3.59668 7.92959,13.72746 9.21904,23.673943 1.89078,14.58503 0.71704,13.13732 10.1621,12.53407 6.54848,-0.41826 9.29394,-0.10717 13.25859,1.5022 l 5,2.02968 0.33171,-3.25712 c 0.18243,-1.79141 -0.19183,-6.15549 -0.83171,-9.69796 z"
     id="path3723"
     inkscape:connector-curvature="0" />
</svg>
